<svg width="30" height="30" viewBox="0 0 30 30" fill="none" xmlns="http://www.w3.org/2000/svg">
<path d="M25.6062 23.4363L6.51427 4.3444C5.92849 3.75861 4.97874 3.75861 4.39295 4.3444C3.80717 4.93019 3.80717 5.87994 4.39295 6.46572L23.4848 25.5576C24.0706 26.1434 25.0204 26.1434 25.6062 25.5576C26.1919 24.9718 26.1919 24.0221 25.6062 23.4363Z" fill="white"/>
<g clip-path="url(#clip0)">
<path d="M23.4362 4.3934L4.34435 23.4853C3.75857 24.0711 3.75857 25.0208 4.34435 25.6066C4.93014 26.1924 5.87989 26.1924 6.46567 25.6066L25.5576 6.51472C26.1433 5.92893 26.1433 4.97919 25.5576 4.3934C24.9718 3.80761 24.022 3.80761 23.4362 4.3934Z" fill="white"/>
</g>
<defs>
<clipPath id="clip0">
<rect width="30" height="24" fill="white" transform="translate(3 30) rotate(-90)"/>
</clipPath>
</defs>
</svg>
